Coordinates
version=1
nRows=14
nColumns=40
inDegrees=yes

Units are S.I. units (second, meters, Newtons, ...)
Angles are in degrees.

endheader
time	pelvis_tilt	pelvis_list	pelvis_rotation	pelvis_tx	pelvis_ty	pelvis_tz	hip_flexion_r	hip_adduction_r	hip_rotation_r	knee_angle_r	knee_angle_r_beta	ankle_angle_r	subtalar_angle_r	mtp_angle_r	hip_flexion_l	hip_adduction_l	hip_rotation_l	knee_angle_l	knee_angle_l_beta	ankle_angle_l	subtalar_angle_l	mtp_angle_l	lumbar_extension	lumbar_bending	lumbar_rotation	arm_flex_r	arm_add_r	arm_rot_r	elbow_flex_r	pro_sup_r	wrist_flex_r	wrist_dev_r	arm_flex_l	arm_add_l	arm_rot_l	elbow_flex_l	pro_sup_l	wrist_flex_l	wrist_dev_l
     14.98142857	     -4.14055906	     -4.70557665	     -2.46797703	      0.99334356	      0.90845767	      0.40759100	     27.05161637	     -3.46529657	      2.90093450	     63.49380516	     63.49380516	      7.06565163	    -10.46210346	     -2.65742699	     23.02879757	     -4.05520171	     -1.70572709	     36.73613813	     36.73613813	     20.07216901	    -18.13187770	      8.32740237	    -11.65974013	      7.02528700	      4.08263003	      2.63968230	    -12.54276452	      0.25384181	     26.68979825	     46.90249081	      0.00000000	      0.00000000	     31.61791762	    -17.90829039	     -1.26838205	     62.14717669	     48.10889386	      0.00000000	      0.00000000
     15.00285714	     -4.00615877	     -4.67664603	     -2.93588052	      0.99258000	      0.90839688	      0.40728698	     27.91168362	     -3.50579798	      2.72396723	     63.13878162	     63.13878162	      7.27389690	    -11.00252100	     -2.46414832	     22.56259832	     -4.07989492	     -2.02431258	     36.77007445	     36.77007445	     20.39710339	    -18.25502729	      8.37118726	    -11.71845341	      7.27068275	      3.40690417	     -0.52276726	    -12.35752848	      0.26371192	     25.50692744	     46.92067575	      0.00000000	      0.00000000	     32.97625132	    -19.24715065	     -1.94459591	     63.05562008	     48.18222060	      0.00000000	      0.00000000
     15.02428571	     -4.05824261	     -4.67343674	     -3.61568219	      0.99154460	      0.90884873	      0.40783957	     28.82470970	     -3.24261582	      2.86377662	     62.03905557	     62.03905557	      7.72137700	    -11.96890115	     -1.37359174	     22.19925461	     -4.24824940	     -2.52265091	     36.67553259	     36.67553259	     21.06631995	    -18.19619660	      9.60601978	    -11.88591057	      7.37180709	      3.20183650	     -3.56482432	    -12.13555864	     -0.18439780	     24.53110408	     46.94458310	      0.00000000	      0.00000000	     32.79734411	    -19.88600098	     -4.38238329	     69.21266276	     48.40409459	      0.00000000	      0.00000000
     15.04571429	     -4.17816923	     -4.69084481	     -4.31636175	      0.99037810	      0.91006995	      0.40888247	     29.45808533	     -3.13986769	      2.71607161	     59.91011036	     59.91011036	      7.88743011	    -12.42993520	     -2.09940633	     21.65494011	     -4.48939732	     -3.12395774	     36.06463732	     36.06463732	     21.08755225	    -18.17181258	      9.67649120	    -11.87654286	      7.52315637	      3.01732846	     -6.35537827	    -12.04784798	     -0.33057475	     23.89962248	     46.93383328	      0.00000000	      0.00000000	     33.60416162	    -20.68583677	     -5.83471032	     71.95944745	     48.50934848	      0.00000000	      0.00000000
     15.06714286	     -4.48920471	     -4.73827762	     -5.06535951	      0.98899834	      0.91175379	      0.41048084	     30.06376559	     -3.02565165	      2.45229320	     57.05950365	     57.05950365	      8.36712689	    -12.28327179	     -2.08898591	     21.15325769	     -4.80503964	     -3.76307139	     35.14061081	     35.14061081	     21.01351363	    -18.10106683	      9.88181521	    -11.59151014	      7.71943071	      2.87986463	     -8.76177704	    -11.94792242	     -0.34446327	     23.16401669	     46.94010735	      0.00000000	      0.00000000	     34.86194077	    -21.69439461	     -6.45884327	     73.03654913	     48.57606814	      0.00000000	      0.00000000
     15.08857143	     -4.73370358	     -4.80270152	     -5.91206168	      0.98762811	      0.91415993	      0.41264866	     30.17220821	     -2.89049553	      2.13115256	     53.21353800	     53.21353800	      8.17579298	    -11.95886753	     -4.20807631	     20.35484155	     -5.20038778	     -4.60064350	     33.82758170	     33.82758170	     20.49459145	    -18.01008103	      9.26714988	    -11.62536471	      7.81626066	      2.98636989	    -11.41937812	    -11.96627607	     -0.83184379	     24.38325420	     46.87655967	      0.00000000	      0.00000000	     35.05852584	    -22.15104798	     -8.20269705	     77.33163050	     48.73560262	      0.00000000	      0.00000000
     15.11000000	     -5.02657722	     -4.90358903	     -6.73343008	      0.98615776	      0.91690860	      0.41534850	     29.99774070	     -2.70148216	      1.68699892	     48.69229678	     48.69229678	      7.83057469	    -11.06814034	     -6.34304502	     19.47155257	     -5.64602829	     -5.45202546	     32.25837753	     32.25837753	     19.81724795	    -17.84784512	      8.49578302	    -11.52451968	      7.95648369	      2.72412768	    -13.37064265	    -12.00439315	     -1.10423790	     25.56379984	     46.79287821	      0.00000000	      0.00000000	     35.52074747	    -23.05909220	     -9.66993053	     79.85778001	     48.83166616	      0.00000000	      0.00000000
     15.13142857	     -5.39631954	     -4.97804007	     -7.55185085	      0.98458905	      0.91961981	      0.41850474	     29.68009631	     -2.50690326	      1.14825129	     43.84318881	     43.84318881	      7.83952550	     -9.15113196	     -6.97553145	     18.62824177	     -6.07291784	     -6.31506021	     30.60360365	     30.60360365	     19.15700661	    -17.65000100	      7.97034966	    -11.35393259	      8.04694629	      2.73980132	    -14.98284049	    -11.98699759	     -1.26848426	     26.54016478	     46.71592220	      0.00000000	      0.00000000	     36.17617595	    -23.74643959	    -10.61224198	     82.00911740	     48.89748025	      0.00000000	      0.00000000
     15.15285714	     -5.70190960	     -5.03529092	     -8.34428225	      0.98310789	      0.92229151	      0.42211291	     29.04885119	     -2.26379824	      0.58831583	     38.77261147	     38.77261147	      7.89526275	     -6.54630498	     -6.53097606	     17.72086660	     -6.47613233	     -7.16643804	     29.00613681	     29.00613681	     18.76552732	    -17.32917727	      8.07895380	    -11.19876635	      8.09388133	      2.90409981	    -16.01437806	    -11.88539983	     -1.34955882	     26.82477004	     46.69125309	      0.00000000	      0.00000000	     37.06516803	    -24.28921197	    -11.08002847	     83.35669275	     48.95080036	      0.00000000	      0.00000000
     15.17428571	     -6.12939694	     -5.08754061	     -9.02122126	      0.98163292	      0.92441701	      0.42610266	     28.36794194	     -1.92836488	      0.02587119	     33.69227555	     33.69227555	      7.62041207	     -3.77558551	     -5.68420498	     16.99804872	     -6.87855719	     -7.90508063	     27.47911217	     27.47911217	     18.38714919	    -16.96697482	      8.11184245	    -10.83229755	      8.11412892	      2.95751651	    -16.68753047	    -11.74728953	     -1.47361108	     27.32962530	     46.66597070	      0.00000000	      0.00000000	     37.79180472	    -24.72602186	    -11.45283370	     84.63121343	     48.99933599	      0.00000000	      0.00000000
     15.19571429	     -6.31293397	     -4.92595875	     -9.66317903	      0.98044073	      0.92607201	      0.43019023	     27.59460641	     -1.98199027	     -0.91190534	     29.36276424	     29.36276424	      8.09707037	      0.60852647	     -2.75031314	     15.99223741	     -7.02632257	     -8.82593993	     25.84675735	     25.84675735	     17.11982275	    -16.85384610	      5.78386418	    -10.84284237	      7.87773524	      2.57123873	    -17.84057254	    -11.85032671	     -2.21926558	     31.09892369	     46.50037357	      0.00000000	      0.00000000	     37.54911568	    -25.40889699	    -12.94831968	     87.99482874	     49.11696449	      0.00000000	      0.00000000
     15.21714286	     -6.46242669	     -4.75158935	    -10.12794799	      0.97948692	      0.92718493	      0.43448585	     26.74281337	     -1.96551304	     -1.77094818	     25.42909823	     25.42909823	      7.81608104	      4.30000743	     -0.93871148	     15.16550152	     -7.12864221	     -9.49619104	     24.64807196	     24.64807196	     16.82183226	    -16.47321897	      5.32872500	    -10.70148421	      7.63080271	      2.64376064	    -17.96620312	    -11.69996073	     -2.30018912	     31.94686677	     46.45236115	      0.00000000	      0.00000000	     38.24260369	    -25.56151423	    -13.05091430	     89.24384639	     49.13840661	      0.00000000	      0.00000000
     15.23857143	     -6.58438890	     -4.59955711	    -10.51647857	      0.97869375	      0.92773562	      0.43916666	     25.93615406	     -1.74754476	     -2.11881596	     22.14483810	     22.14483810	      7.21535394	      6.84840489	      0.56954711	     14.49218724	     -7.27414086	    -10.03788721	     23.80907825	     23.80907825	     16.66077807	    -16.21054152	      5.08079854	    -10.51145046	      7.42705902	      2.66130171	    -17.72706604	    -11.58821699	     -2.42036901	     32.63281486	     46.42617922	      0.00000000	      0.00000000	     38.69769915	    -25.65974610	    -13.10158827	     90.10012449	     49.15598487	      0.00000000	      0.00000000
     15.26000000	     -6.69056375	     -4.23041830	    -10.76378553	      0.97817058	      0.92760532	      0.44368545	     25.59624263	     -1.97346597	     -3.02052736	     20.29659610	     20.29659610	      7.45635818	     10.14967048	      3.46265944	     13.87740280	     -7.16155414	    -10.54138066	     22.99571267	     22.99571267	     16.12900763	    -16.04451261	      3.62743145	    -10.33457022	      7.01046733	      2.39586398	    -17.52760974	    -11.50195161	     -3.02071602	     34.51877171	     46.36235252	      0.00000000	      0.00000000	     38.63322642	    -25.74886643	    -13.45616080	     91.87738293	     49.19349838	      0.00000000	      0.00000000
